<svg width="74" height="74" viewBox="0 0 74 74" fill="none" xmlns="http://www.w3.org/2000/svg">
<g id="gg:add">
<g id="Group">
<path id="Vector" fill-rule="evenodd" clip-rule="evenodd" d="M6.16663 37.0003C6.16663 19.9711 19.9707 6.16699 37 6.16699C54.0292 6.16699 67.8333 19.9711 67.8333 37.0003C67.8333 54.0296 54.0292 67.8337 37 67.8337C19.9707 67.8337 6.16663 54.0296 6.16663 37.0003ZM37 12.3337C30.458 12.3337 24.1839 14.9325 19.558 19.5584C14.9321 24.1843 12.3333 30.4583 12.3333 37.0003C12.3333 43.5423 14.9321 49.8164 19.558 54.4423C24.1839 59.0682 30.458 61.667 37 61.667C43.542 61.667 49.816 59.0682 54.4419 54.4423C59.0678 49.8164 61.6666 43.5423 61.6666 37.0003C61.6666 30.4583 59.0678 24.1843 54.4419 19.5584C49.816 14.9325 43.542 12.3337 37 12.3337Z" fill="#333333"/>
<path id="Vector_2" fill-rule="evenodd" clip-rule="evenodd" d="M40.0833 21.5833C40.0833 20.7656 39.7585 19.9813 39.1802 19.4031C38.602 18.8249 37.8178 18.5 37 18.5C36.1822 18.5 35.398 18.8249 34.8198 19.4031C34.2415 19.9813 33.9167 20.7656 33.9167 21.5833V33.9167H21.5833C20.7656 33.9167 19.9813 34.2415 19.4031 34.8198C18.8249 35.398 18.5 36.1822 18.5 37C18.5 37.8178 18.8249 38.602 19.4031 39.1802C19.9813 39.7585 20.7656 40.0833 21.5833 40.0833H33.9167V52.4167C33.9167 53.2344 34.2415 54.0187 34.8198 54.5969C35.398 55.1752 36.1822 55.5 37 55.5C37.8178 55.5 38.602 55.1752 39.1802 54.5969C39.7585 54.0187 40.0833 53.2344 40.0833 52.4167V40.0833H52.4167C53.2344 40.0833 54.0187 39.7585 54.5969 39.1802C55.1752 38.602 55.5 37.8178 55.5 37C55.5 36.1822 55.1752 35.398 54.5969 34.8198C54.0187 34.2415 53.2344 33.9167 52.4167 33.9167H40.0833V21.5833Z" fill="#333333"/>
</g>
</g>
</svg>
