<svg width="74" height="79" viewBox="0 0 74 79" fill="none" xmlns="http://www.w3.org/2000/svg">
<g id="mynaui:home-solid">
<path id="Vector" d="M39.6424 13.3645L57.7293 29.2204C58.7468 30.1092 59.3542 31.4785 59.3542 32.94V61.9165C59.3542 64.5959 57.387 66.6565 55.0899 66.6565H47.0208V51.0211C47.0208 48.6204 46.1275 46.3179 44.5374 44.6203C42.9472 42.9227 40.7905 41.969 38.5417 41.969H35.4583C33.2095 41.969 31.0528 42.9227 29.4627 44.6203C27.8725 46.3179 26.9792 48.6204 26.9792 51.0211V66.6565H18.9101C16.613 66.6565 14.6458 64.5959 14.6458 61.9165V32.9433C14.6458 31.4785 15.2533 30.1125 16.2708 29.2237L34.3576 13.3612C35.0997 12.702 36.0346 12.3411 37 12.3411C37.9654 12.3411 38.9003 12.7053 39.6424 13.3645ZM55.0899 71.5907C60.0541 71.5907 63.9792 67.1964 63.9792 61.9132V32.94C63.9827 31.5001 63.6873 30.0774 63.1142 28.774C62.5411 27.4706 61.7045 26.319 60.6646 25.4021L42.5808 9.54612C41.0114 8.16166 39.039 7.4043 37.0031 7.4043C34.9671 7.4043 32.9948 8.16166 31.4253 9.54612L13.3354 25.4054C12.2955 26.3223 11.459 27.4739 10.8858 28.7773C10.3127 30.0806 10.0173 31.5034 10.0208 32.9433V61.9165C10.0208 67.1997 13.9459 71.594 18.9101 71.594L55.0899 71.5907Z" fill="#333333"/>
</g>
</svg>
